<?xml version="1.0" encoding="UTF-8" standalone="no" ?>
<!DOCTYPE svg PUBLIC "-//W3C//DTD SVG 1.1//EN" "http://www.w3.org/Graphics/SVG/1.1/DTD/svg11.dtd">
<svg xmlns="http://www.w3.org/2000/svg" xmlns:xlink="http://www.w3.org/1999/xlink" version="1.1" width="4000" height="1000" viewBox="0 0 4000 1000" xml:space="preserve">
<desc>Created with Fabric.js 4.6.0</desc>
<defs>
</defs>
<g transform="matrix(1 0 0 1 2489.93 768.47)" id="-KkK8TLN7MhiTMhNxy7uO" clip-path="url(#CLIPPATH_776)"  >
<clipPath id="CLIPPATH_776" >
	<rect transform="matrix(1 0 0 1 -489.93 -268.47)" id="ArtboardFrame" x="-2000" y="-500" rx="0" ry="0" width="4000" height="1000" />
</clipPath>
<path style="stroke: none; stroke-width: 1; stroke-dasharray: none; stroke-linecap: round; stroke-dashoffset: 0; stroke-linejoin: round; stroke-miterlimit: 10; fill: rgb(169,208,222); fill-rule: nonzero; opacity: 1;" vector-effect="non-scaling-stroke"  transform=" translate(-2489.93, -768.47)" d="M 1974.16 735.531 C 1992.76 740.665 2021.97 734.35 2037.05 728.421 C 2048.68 723.843 2060.26 726.299 2072.3 727.912 C 2090.2 730.308 2093.68 726.064 2109.87 724.349 C 2125.31 722.712 2141.31 724.881 2156.82 724.252 C 2173.75 723.563 2184.9 717.744 2200.02 714.776 C 2216.23 711.594 2225.59 715.457 2239.88 706.01 C 2243.25 703.778 2253.57 692.9 2256.32 692.639 C 2267.12 691.621 2263.8 698.531 2271.29 702.206 C 2287.92 710.357 2299.36 710.153 2316.46 709.26 C 2328.92 708.607 2345.98 712.753 2359.65 709.381 C 2367.94 707.333 2370.97 701.32 2380.31 699.866 C 2386.99 698.827 2396.29 700.461 2402.85 701.743 C 2416.89 704.483 2425.38 710.147 2440.41 711.119 C 2456.19 712.145 2470.6 711.063 2485.53 714.829 C 2511.26 721.317 2547.77 725.635 2575.63 720.079 C 2592.8 716.65 2600.76 709.478 2618.82 710.659 C 2636.24 711.8 2643.84 708.567 2660.14 705.45 C 2672.72 703.048 2684.72 702.076 2697.71 698.04 C 2710.37 694.109 2723.47 687.915 2737.15 688.513 C 2753.25 689.223 2768.96 694.255 2785.97 694.239 C 2799.99 694.225 2814.54 693.973 2827.24 698.043 C 2882.3 715.713 2942.91 711.203 3001.95 714.873 L 3005.71 834.92 L 1997.56 848.465" stroke-linecap="round" />
</g>
<g transform="matrix(1 0 0 1 496.73 775.76)" id="QeA3IvVXSWOyFI1wlZCcO" clip-path="url(#CLIPPATH_777)"  >
<clipPath id="CLIPPATH_777" >
	<rect transform="matrix(1 0 0 1 1503.27 -275.76)" id="ArtboardFrame" x="-2000" y="-500" rx="0" ry="0" width="4000" height="1000" />
</clipPath>
<path style="stroke: none; stroke-width: 1; stroke-dasharray: none; stroke-linecap: round; stroke-dashoffset: 0; stroke-linejoin: round; stroke-miterlimit: 10; fill: rgb(169,208,222); fill-rule: nonzero; opacity: 1;" vector-effect="non-scaling-stroke"  transform=" translate(-496.73, -775.76)" d="M -2.19215 737.381 C 16.4116 742.515 20.7136 734.35 35.7876 728.421 C 47.417 723.843 59.0022 726.299 71.0449 727.912 C 88.9398 730.308 92.4255 726.064 108.613 724.349 C 124.056 722.712 140.048 724.881 155.564 724.252 C 172.496 723.563 183.637 717.744 198.759 714.776 C 214.976 711.594 224.327 715.457 238.617 706.01 C 241.99 703.778 252.31 692.9 255.059 692.639 C 265.857 691.621 262.538 698.531 270.036 702.206 C 286.659 710.357 298.103 710.153 315.2 709.26 C 327.661 708.607 344.722 712.753 358.396 709.381 C 366.682 707.333 369.712 701.32 379.054 699.866 C 385.728 698.827 395.028 700.461 401.591 701.743 C 415.632 704.483 424.123 710.147 439.151 711.119 C 454.936 712.145 469.34 711.063 484.269 714.829 C 510 721.317 546.515 725.635 574.372 720.079 C 591.539 716.65 599.505 709.478 617.566 710.659 C 634.979 711.8 642.581 708.567 658.885 705.45 C 671.46 703.048 683.465 702.076 696.454 698.04 C 709.114 694.109 722.209 687.915 735.887 688.513 C 751.992 689.223 767.701 694.255 784.715 694.239 C 798.734 694.225 813.285 693.973 825.979 698.043 C 881.043 715.713 941.655 711.203 1000.69 714.873 L 1001.28 840.27 L -7.82668 863.055" stroke-linecap="round" />
</g>
<g transform="matrix(1 0 0 1 614.32 794.21)" id="6stCO1jy9IJlmam4Q9yun" clip-path="url(#CLIPPATH_778)"  >
<clipPath id="CLIPPATH_778" >
	<rect transform="matrix(1 0 0 1 1385.68 -294.21)" id="ArtboardFrame" x="-2000" y="-500" rx="0" ry="0" width="4000" height="1000" />
</clipPath>
<path style="stroke: none; stroke-width: 1; stroke-dasharray: none; stroke-linecap: round; stroke-dashoffset: 0; stroke-linejoin: round; stroke-miterlimit: 10; fill: rgb(107,158,181); fill-rule: nonzero; opacity: 1;" vector-effect="non-scaling-stroke"  transform=" translate(-614.32, -794.21)" d="M 227.934 748.635 C 259.531 751.68 296.273 744.825 325.283 735.973 C 357.056 726.274 383.967 741.94 415.046 734.137 C 449.965 725.37 473.084 725.04 506.834 736.86 C 538.276 747.873 562.876 753.543 595.096 743.426 C 611.023 738.425 626.287 733.472 643.323 733.631 C 662.859 733.813 668.57 729.866 686.363 723.834 C 716.392 713.656 748.848 725.889 779.913 724.349 C 810.835 722.812 840.661 732.411 871.598 735.514 C 904.51 738.812 937.433 735.505 970.768 735.505 C 980.946 735.505 994.627 733.963 1002.58 737.381 L 998.161 840.496 L 226.063 868.682" stroke-linecap="round" />
</g>
<g transform="matrix(1 0 0 1 263.71 792.73)" id="wx_KL-J2ikq6bxXcV5G-C" clip-path="url(#CLIPPATH_779)"  >
<clipPath id="CLIPPATH_779" >
	<rect transform="matrix(1 0 0 1 1736.29 -292.73)" id="ArtboardFrame" x="-2000" y="-500" rx="0" ry="0" width="4000" height="1000" />
</clipPath>
<path style="stroke: none; stroke-width: 1; stroke-dasharray: none; stroke-linecap: round; stroke-dashoffset: 0; stroke-linejoin: round; stroke-miterlimit: 10; fill: rgb(80,128,152); fill-rule: nonzero; opacity: 1;" vector-effect="non-scaling-stroke"  transform=" translate(-263.71, -792.73)" d="M -9.30885 761.766 C 7.78442 762.837 37.3057 753.216 53.921 752.388 C 68.8905 751.642 82.5643 757.906 96.9558 759.472 C 130.547 763.135 149.293 738.14 181.156 734.047 C 210.985 730.22 240.213 756.127 269.046 748.163 C 288.078 742.91 290.118 738.326 310.36 744.414 C 325.171 748.867 336.114 750.918 352.882 750.093 C 385.889 748.473 409.577 762.25 438.013 779.063 C 474.296 800.521 509.626 820.223 549.2 835.016 C 518.81 835.313 488.85 829.996 458.274 831.125 C 412.092 832.83 366.136 840.529 319.716 842.325 C 222.232 846.101 76.2574 851.801 -21.7825 851.801" stroke-linecap="round" />
</g>
<g transform="matrix(1 0 0 1 1503.14 775.76)" id="acm1TDxpASWvYCLWyHgdw" clip-path="url(#CLIPPATH_780)"  >
<clipPath id="CLIPPATH_780" >
	<rect transform="matrix(1 0 0 1 496.86 -275.76)" id="ArtboardFrame" x="-2000" y="-500" rx="0" ry="0" width="4000" height="1000" />
</clipPath>
<path style="stroke: none; stroke-width: 1; stroke-dasharray: none; stroke-linecap: round; stroke-dashoffset: 0; stroke-linejoin: round; stroke-miterlimit: 10; fill: rgb(169,208,222); fill-rule: nonzero; opacity: 1;" vector-effect="non-scaling-stroke"  transform=" translate(-1503.14, -775.76)" d="M 2001.77 737.381 C 1983.16 742.515 1978.86 734.35 1963.79 728.421 C 1952.16 723.843 1940.57 726.299 1928.53 727.912 C 1910.64 730.308 1907.15 726.064 1890.96 724.349 C 1875.52 722.712 1859.53 724.881 1844.01 724.252 C 1827.08 723.563 1815.94 717.744 1800.82 714.776 C 1784.6 711.594 1775.25 715.457 1760.96 706.01 C 1757.59 703.778 1747.27 692.9 1744.52 692.639 C 1733.72 691.621 1737.04 698.531 1729.54 702.206 C 1712.92 710.357 1701.47 710.153 1684.38 709.26 C 1671.92 708.607 1654.85 712.753 1641.18 709.381 C 1632.89 707.333 1629.86 701.32 1620.52 699.866 C 1613.85 698.827 1604.55 700.461 1597.99 701.743 C 1583.94 704.483 1575.45 710.147 1560.43 711.119 C 1544.64 712.145 1530.24 711.063 1515.31 714.829 C 1489.58 721.317 1453.06 725.635 1425.2 720.079 C 1408.04 716.65 1400.07 709.478 1382.01 710.659 C 1364.6 711.8 1357 708.567 1340.69 705.45 C 1328.12 703.048 1316.11 702.076 1303.12 698.04 C 1290.46 694.109 1277.37 687.915 1263.69 688.513 C 1247.58 689.223 1231.88 694.255 1214.86 694.239 C 1200.84 694.225 1186.29 693.973 1173.6 698.043 C 1118.53 715.713 1057.92 711.203 998.886 714.873 L 1005.2 830.484 L 2007.4 863.055" stroke-linecap="round" />
</g>
<g transform="matrix(1 0 0 1 1385.26 794.21)" id="NgOvj7HSoqSY6vYeNJYop" clip-path="url(#CLIPPATH_781)"  >
<clipPath id="CLIPPATH_781" >
	<rect transform="matrix(1 0 0 1 614.74 -294.21)" id="ArtboardFrame" x="-2000" y="-500" rx="0" ry="0" width="4000" height="1000" />
</clipPath>
<path style="stroke: none; stroke-width: 1; stroke-dasharray: none; stroke-linecap: round; stroke-dashoffset: 0; stroke-linejoin: round; stroke-miterlimit: 10; fill: rgb(107,158,181); fill-rule: nonzero; opacity: 1;" vector-effect="non-scaling-stroke"  transform=" translate(-1385.26, -794.21)" d="M 1771.64 748.635 C 1740.05 751.68 1703.3 744.825 1674.29 735.973 C 1642.52 726.274 1615.61 741.94 1584.53 734.137 C 1549.61 725.37 1526.49 725.04 1492.74 736.86 C 1461.3 747.873 1436.7 753.543 1404.48 743.426 C 1388.55 738.425 1373.29 733.472 1356.25 733.631 C 1336.72 733.813 1331.01 729.866 1313.21 723.834 C 1283.18 713.656 1250.73 725.889 1219.66 724.349 C 1188.74 722.812 1158.92 732.411 1127.98 735.514 C 1095.07 738.812 1028.81 735.505 1028.81 735.505 C 1028.81 735.505 1004.95 733.963 997 737.381 L 1004.93 848.6 L 1773.51 868.682" stroke-linecap="round" />
</g>
<g transform="matrix(1 0 0 1 1732.95 793.67)" id="R_-TKpbqDFmChsyJMnbmu" clip-path="url(#CLIPPATH_782)"  >
<clipPath id="CLIPPATH_782" >
	<rect transform="matrix(1 0 0 1 267.05 -293.67)" id="ArtboardFrame" x="-2000" y="-500" rx="0" ry="0" width="4000" height="1000" />
</clipPath>
<path style="stroke: none; stroke-width: 1; stroke-dasharray: none; stroke-linecap: round; stroke-dashoffset: 0; stroke-linejoin: round; stroke-miterlimit: 10; fill: rgb(80,128,152); fill-rule: nonzero; opacity: 1;" vector-effect="non-scaling-stroke"  transform=" translate(-1732.95, -793.67)" d="M 1994.31 761.766 C 1977.21 762.837 1962.27 753.216 1945.66 752.388 C 1930.69 751.642 1917.01 757.906 1902.62 759.472 C 1869.03 763.135 1850.28 738.14 1818.42 734.047 C 1788.59 730.22 1759.36 756.127 1730.53 748.163 C 1711.5 742.91 1709.46 738.326 1689.22 744.414 C 1674.41 748.867 1663.46 750.918 1646.69 750.093 C 1613.69 748.473 1590 762.25 1561.56 779.063 C 1525.28 800.521 1489.95 820.223 1450.38 835.016 C 1480.77 835.313 1510.73 829.996 1541.3 831.125 C 1587.48 832.83 1633.44 840.529 1679.86 842.325 C 1777.34 846.101 1917.47 853.687 2015.51 853.687" stroke-linecap="round" />
</g>
<g transform="matrix(1 0 0 1 2631.31 794.21)" id="_qt2_kU07uuMRMmK0TEdK" clip-path="url(#CLIPPATH_783)"  >
<clipPath id="CLIPPATH_783" >
	<rect transform="matrix(1 0 0 1 -631.31 -294.21)" id="ArtboardFrame" x="-2000" y="-500" rx="0" ry="0" width="4000" height="1000" />
</clipPath>
<path style="stroke: none; stroke-width: 1; stroke-dasharray: none; stroke-linecap: round; stroke-dashoffset: 0; stroke-linejoin: round; stroke-miterlimit: 10; fill: rgb(107,158,181); fill-rule: nonzero; opacity: 1;" vector-effect="non-scaling-stroke"  transform=" translate(-2631.31, -794.21)" d="M 2229.19 748.635 C 2260.79 751.68 2297.53 744.825 2326.54 735.973 C 2358.31 726.274 2385.23 741.94 2416.3 734.137 C 2451.22 725.37 2474.34 725.04 2508.09 736.86 C 2539.53 747.873 2564.13 753.543 2596.35 743.426 C 2612.28 738.425 2627.55 733.472 2644.58 733.631 C 2664.12 733.813 2669.83 729.866 2687.62 723.834 C 2717.65 713.656 2750.11 725.889 2781.17 724.349 C 2812.09 722.812 2841.92 732.411 2872.86 735.514 C 2905.77 738.812 2938.69 735.505 2972.03 735.505 C 2982.2 735.505 2995.89 733.963 3003.84 737.381 L 3035.29 843.986 L 2227.32 868.682" stroke-linecap="round" />
</g>
<g transform="matrix(1 0 0 1 2264.68 791.47)" id="c39f4NnoFi7GxaTwoyY_V" clip-path="url(#CLIPPATH_784)"  >
<clipPath id="CLIPPATH_784" >
	<rect transform="matrix(1 0 0 1 -264.68 -291.47)" id="ArtboardFrame" x="-2000" y="-500" rx="0" ry="0" width="4000" height="1000" />
</clipPath>
<path style="stroke: none; stroke-width: 1; stroke-dasharray: none; stroke-linecap: round; stroke-dashoffset: 0; stroke-linejoin: round; stroke-miterlimit: 10; fill: rgb(80,128,152); fill-rule: nonzero; opacity: 1;" vector-effect="non-scaling-stroke"  transform=" translate(-2264.68, -791.47)" d="M 1978.89 761.717 C 1995.98 762.788 2038.56 753.216 2055.18 752.388 C 2070.15 751.642 2083.82 757.906 2098.21 759.472 C 2131.81 763.135 2150.55 738.14 2182.41 734.047 C 2212.24 730.22 2241.47 756.127 2270.31 748.163 C 2289.34 742.91 2291.38 738.326 2311.62 744.414 C 2326.43 748.867 2337.37 750.918 2354.14 750.093 C 2387.15 748.473 2410.84 762.25 2439.27 779.063 C 2475.55 800.521 2510.89 820.223 2550.46 835.016 C 2520.07 835.313 2490.11 829.996 2459.53 831.125 C 2413.35 832.83 2367.4 840.529 2320.97 842.325 C 2223.49 846.101 2095.32 849.277 1997.28 849.277" stroke-linecap="round" />
</g>
<g transform="matrix(1 0 0 1 3504.4 775.76)" id="CrSIIqgUmOrpJnb8QqQmI" clip-path="url(#CLIPPATH_785)"  >
<clipPath id="CLIPPATH_785" >
	<rect transform="matrix(1 0 0 1 -1504.4 -275.76)" id="ArtboardFrame" x="-2000" y="-500" rx="0" ry="0" width="4000" height="1000" />
</clipPath>
<path style="stroke: none; stroke-width: 1; stroke-dasharray: none; stroke-linecap: round; stroke-dashoffset: 0; stroke-linejoin: round; stroke-miterlimit: 10; fill: rgb(169,208,222); fill-rule: nonzero; opacity: 1;" vector-effect="non-scaling-stroke"  transform=" translate(-3504.4, -775.76)" d="M 4003.03 737.381 C 3984.42 742.515 3980.12 734.35 3965.05 728.421 C 3953.42 723.843 3941.83 726.299 3929.79 727.912 C 3911.9 730.308 3908.41 726.064 3892.22 724.349 C 3876.78 722.712 3860.79 724.881 3845.27 724.252 C 3828.34 723.563 3817.2 717.744 3802.08 714.776 C 3785.86 711.594 3776.51 715.457 3762.22 706.01 C 3758.85 703.778 3748.53 692.9 3745.78 692.639 C 3734.98 691.621 3738.3 698.531 3730.8 702.206 C 3714.18 710.357 3702.73 710.153 3685.63 709.26 C 3673.17 708.607 3656.11 712.753 3642.44 709.381 C 3634.15 707.333 3631.12 701.32 3621.78 699.866 C 3615.11 698.827 3605.81 700.461 3599.24 701.743 C 3585.2 704.483 3576.71 710.147 3561.68 711.119 C 3545.9 712.145 3531.5 711.063 3516.57 714.829 C 3490.84 721.317 3454.32 725.635 3426.46 720.079 C 3409.3 716.65 3401.33 709.478 3383.27 710.659 C 3365.86 711.8 3358.25 708.567 3341.95 705.45 C 3329.38 703.048 3317.37 702.076 3304.38 698.04 C 3291.72 694.109 3278.63 687.915 3264.95 688.513 C 3248.84 689.223 3233.13 694.255 3216.12 694.239 C 3202.1 694.225 3187.55 693.973 3174.86 698.043 C 3145.94 707.323 3084.54 711.928 3084.54 711.928 C 3084.54 711.928 3028.18 713.13 3000.15 714.873 L 3006.21 767.488 L 4008.66 863.055" stroke-linecap="round" />
</g>
<g transform="matrix(1 0 0 1 3386.52 794.21)" id="HyNamwRSi1ZwQ_oklw2nv" clip-path="url(#CLIPPATH_786)"  >
<clipPath id="CLIPPATH_786" >
	<rect transform="matrix(1 0 0 1 -1386.52 -294.21)" id="ArtboardFrame" x="-2000" y="-500" rx="0" ry="0" width="4000" height="1000" />
</clipPath>
<path style="stroke: none; stroke-width: 1; stroke-dasharray: none; stroke-linecap: round; stroke-dashoffset: 0; stroke-linejoin: round; stroke-miterlimit: 10; fill: rgb(107,158,181); fill-rule: nonzero; opacity: 1;" vector-effect="non-scaling-stroke"  transform=" translate(-3386.52, -794.21)" d="M 3772.9 748.635 C 3741.3 751.68 3704.56 744.825 3675.55 735.973 C 3643.78 726.274 3616.87 741.94 3585.79 734.137 C 3550.87 725.37 3527.75 725.04 3494 736.86 C 3462.56 747.873 3437.96 753.543 3405.74 743.426 C 3389.81 738.425 3374.55 733.472 3357.51 733.631 C 3337.98 733.813 3332.27 729.866 3314.47 723.834 C 3284.44 713.656 3251.99 725.889 3220.92 724.349 C 3190 722.812 3160.17 732.411 3129.24 735.514 C 3096.33 738.812 3063.4 735.505 3030.07 735.505 C 3019.89 735.505 3006.21 733.963 2998.26 737.381 L 3006.04 837.28 L 3774.77 868.682" stroke-linecap="round" />
</g>
<g transform="matrix(1 0 0 1 3734.53 792.73)" id="I7C6EKycGY5PAjahVmN1K" clip-path="url(#CLIPPATH_787)"  >
<clipPath id="CLIPPATH_787" >
	<rect transform="matrix(1 0 0 1 -1734.53 -292.73)" id="ArtboardFrame" x="-2000" y="-500" rx="0" ry="0" width="4000" height="1000" />
</clipPath>
<path style="stroke: none; stroke-width: 1; stroke-dasharray: none; stroke-linecap: round; stroke-dashoffset: 0; stroke-linejoin: round; stroke-miterlimit: 10; fill: rgb(80,128,152); fill-rule: nonzero; opacity: 1;" vector-effect="non-scaling-stroke"  transform=" translate(-3734.53, -792.73)" d="M 4006.49 761.445 C 3989.4 762.515 3963.53 753.216 3946.91 752.388 C 3931.94 751.642 3918.27 757.906 3903.88 759.472 C 3870.29 763.135 3851.54 738.14 3819.68 734.047 C 3789.85 730.22 3760.62 756.127 3731.79 748.163 C 3712.76 742.91 3710.72 738.326 3690.48 744.414 C 3675.66 748.867 3664.72 750.918 3647.95 750.093 C 3614.95 748.473 3591.26 762.25 3562.82 779.063 C 3526.54 800.521 3491.21 820.223 3451.63 835.016 C 3482.03 835.313 3511.99 829.996 3542.56 831.125 C 3588.74 832.83 3634.7 840.529 3681.12 842.325 C 3778.6 846.101 3919.39 851.801 4017.43 851.801" stroke-linecap="round" />
</g>
<g transform="matrix(1 0 0 1 2000.03 879.54)" id="Qzy-OEkuQmiv3Fafz24X1"  >
<linearGradient id="SVGID_763" gradientUnits="userSpaceOnUse" gradientTransform="matrix(1 0 0 1 -1999.77 -120.26)"  x1="2010.2386999999999" y1="250.04092790127362" x2="2010.2386999999999" y2="124.77046395063682">
<stop offset="0%" style="stop-color:#000000;stop-opacity: 0"/>
<stop offset="100%" style="stop-color:#31526B;stop-opacity: 1"/>
</linearGradient>
<path style="stroke: none; stroke-width: 1; stroke-dasharray: none; stroke-linecap: butt; stroke-dashoffset: 0; stroke-linejoin: miter; stroke-miterlimit: 4; fill: url(#SVGID_763); fill-rule: nonzero; opacity: 1;" vector-effect="non-scaling-stroke"  transform=" translate(0, 0)" d="M 140.29132 -77.04974 C 155.74132 -74.49574 168.99132 -62.38974 185.19132000000002 -58.39474 C 200.49132000000003 -54.62374 216.11132000000003 -47.75074 231.97132000000002 -47.036739999999995 C 260.91132000000005 -45.734739999999995 299.25132 -45.56274 327.40132000000006 -50.74473999999999 C 359.0013200000001 -56.55973999999999 379.58132000000006 -76.96773999999999 413.57132000000007 -75.26874 C 472.29132000000004 -72.34374 532.9613200000001 -52.320739999999994 587.07132 -81.21673999999999 C 605.10132 -90.84273999999999 607.71132 -88.14773999999998 628.6413200000001 -82.16273999999999 C 644.5013200000001 -77.62473999999999 658.1313200000001 -84.39273999999999 673.56132 -80.32873999999998 C 701.3913200000001 -72.99973999999999 738.68132 -61.62873999999998 765.70132 -72.88073999999997 C 774.34132 -76.47673999999998 781.92132 -84.25073999999998 791.0213200000001 -86.88873999999997 C 795.42132 -88.15973999999997 802.1413200000001 -86.55373999999998 806.41132 -87.89373999999997 C 810.19132 -89.07773999999996 816.0013200000001 -94.23273999999996 819.97132 -95.32773999999996 C 840.09132 -100.87073999999997 862.1613199999999 -92.98973999999997 883.12132 -100.92373999999997 C 901.50132 -107.88873999999997 918.7813199999999 -120.86073999999996 939.3013199999999 -120.23373999999997 C 949.2113199999999 -119.93173999999996 960.51132 -113.76573999999997 971.0613199999999 -112.68873999999997 C 982.3617399999999 -111.52956999999996 993.6244599999999 -114.84258999999997 1003.83382 -109.44434999999997 C 1014.0431699999999 -114.84258999999997 1025.30561 -111.52956999999998 1036.5963199999999 -112.68873999999997 C 1047.1563199999998 -113.76573999999997 1058.4463199999998 -119.93173999999996 1068.3663199999999 -120.23373999999997 C 1088.8763199999999 -120.86073999999996 1106.1563199999998 -107.88873999999997 1124.53632 -100.92373999999997 C 1145.49632 -92.98973999999997 1167.56632 -100.87073999999997 1187.68632 -95.32773999999996 C 1191.65632 -94.23273999999996 1197.46632 -89.07773999999996 1201.25632 -87.89373999999997 C 1205.52632 -86.55373999999996 1212.24632 -88.15973999999997 1216.63632 -86.88873999999997 C 1225.74632 -84.25073999999996 1233.3163200000001 -76.47673999999996 1241.95632 -72.88073999999997 C 1268.97632 -61.62873999999997 1306.26632 -72.99973999999997 1334.10632 -80.32873999999998 C 1349.5363200000002 -84.39273999999997 1363.16632 -77.62473999999999 1379.0163200000002 -82.16273999999999 C 1399.9463200000002 -88.14773999999998 1402.5663200000001 -90.84273999999999 1420.59632 -81.21673999999999 C 1474.70632 -52.32073999999999 1535.36632 -72.34373999999998 1594.09632 -75.26873999999998 C 1628.0863200000001 -76.96773999999998 1648.66632 -56.55973999999998 1680.2563200000002 -50.74473999999998 C 1708.4163200000003 -45.56273999999998 1746.7563200000002 -45.73473999999998 1775.6863200000003 -47.03673999999998 C 1791.5563200000001 -47.75073999999998 1807.1763200000003 -54.623739999999984 1822.4663200000002 -58.394739999999985 C 1838.6663200000003 -62.38973999999998 1851.9263200000003 -74.49573999999998 1867.3763200000003 -77.04973999999999 C 1900.8263200000004 -82.57173999999999 1967.1581600000004 -63.181739999999984 1999.7081600000004 -82.16273999999999 L 1999.7655100000004 120.25566 L -1999.7655299999994 120.19831 L -1999.7655299999994 -82.16273 C -1967.2217299999995 -63.181729999999995 -1894.4202899999993 -82.57173 -1860.9682899999993 -77.04973 C -1845.5192899999993 -74.49573 -1832.2612899999992 -62.38973 -1816.0612899999994 -58.394729999999996 C -1800.7662899999993 -54.623729999999995 -1785.1482899999994 -47.75073 -1769.2812899999994 -47.03672999999999 C -1740.3482899999995 -45.73472999999999 -1702.0082899999995 -45.562729999999995 -1673.8552899999995 -50.74472999999999 C -1642.2602899999995 -56.55972999999999 -1621.6762899999994 -76.96772999999999 -1587.6872899999994 -75.26872999999999 C -1528.9632899999995 -72.34373 -1468.2972899999993 -52.32072999999999 -1414.1872899999994 -81.21672999999998 C -1396.1582899999994 -90.84272999999999 -1393.5452899999993 -88.14772999999998 -1372.6132899999993 -82.16272999999998 C -1356.7562899999994 -77.62472999999999 -1343.1272899999992 -84.39272999999999 -1327.6982899999994 -80.32872999999998 C -1299.8652899999993 -72.99972999999999 -1262.5752899999993 -61.628729999999976 -1235.5542899999994 -72.88072999999997 C -1226.9152899999995 -76.47672999999998 -1219.3392899999994 -84.25072999999998 -1210.2352899999994 -86.88872999999997 C -1205.8362899999995 -88.15972999999997 -1199.1162899999995 -86.55372999999997 -1194.8492899999994 -87.89372999999996 C -1191.0622899999994 -89.07772999999996 -1185.2532899999994 -94.23272999999996 -1181.2812899999994 -95.32772999999996 C -1161.1612899999996 -100.87072999999997 -1139.0912899999994 -92.98972999999997 -1118.1322899999996 -100.92372999999996 C -1099.7522899999994 -107.88872999999997 -1082.4732899999995 -120.86072999999996 -1061.9562899999996 -120.23372999999997 C -1052.0452899999996 -119.93172999999996 -1040.7482899999995 -113.76572999999996 -1030.1912899999995 -112.68872999999996 C -1018.9000299999996 -111.52960999999996 -1007.6351599999995 -114.84232999999996 -997.4250399999995 -109.44494999999996 C -987.2159899999995 -114.84232999999996 -975.9539799999995 -111.52960999999996 -964.6636899999995 -112.68872999999996 C -954.1036899999996 -113.76572999999996 -942.8036899999995 -119.93172999999996 -932.8936899999995 -120.23372999999997 C -912.3836899999995 -120.86072999999996 -895.1036899999996 -107.88872999999997 -876.7236899999996 -100.92372999999996 C -855.7636899999995 -92.98972999999997 -833.6936899999996 -100.87072999999997 -813.5736899999996 -95.32772999999996 C -809.6036899999996 -94.23272999999996 -803.7936899999996 -89.07772999999996 -800.0036899999996 -87.89372999999996 C -795.7336899999996 -86.55372999999996 -789.0136899999995 -88.15972999999997 -784.6136899999996 -86.88872999999997 C -775.5136899999995 -84.25072999999996 -767.9336899999996 -76.47672999999996 -759.3036899999996 -72.88072999999997 C -732.2736899999996 -61.62872999999997 -694.9836899999996 -72.99972999999997 -667.1536899999996 -80.32872999999998 C -651.7236899999997 -84.39272999999997 -638.0936899999997 -77.62472999999999 -622.2436899999997 -82.16272999999998 C -601.3036899999996 -88.14772999999998 -598.6936899999997 -90.84272999999999 -580.6636899999996 -81.21672999999998 C -526.5536899999996 -52.32072999999998 -465.89368999999965 -72.34372999999998 -407.16368999999963 -75.26872999999998 C -373.1736899999996 -76.96772999999997 -352.59368999999964 -56.55972999999997 -320.9936899999996 -50.744729999999976 C -292.84368999999964 -45.56272999999997 -254.5036899999996 -45.73472999999998 -225.5736899999996 -47.03672999999998 C -209.7036899999996 -47.750729999999976 -194.0836899999996 -54.62372999999998 -178.7936899999996 -58.39472999999998 C -162.5936899999996 -62.38972999999998 -149.3336899999996 -74.49572999999998 -133.8836899999996 -77.04972999999998 C -105.7609199999996 -81.69229999999999 -35.8636199999996 -73.08435999999998 -14.313309999999603 -70.22480999999998 C 50.57864000000039 -78.81900999999998 111.0071800000004 -81.88256999999997 140.2913100000004 -77.04972999999998 z" stroke-linecap="round" />
</g>
</svg>