<?xml version="1.0" encoding="UTF-8" standalone="no"?>
<!DOCTYPE svg PUBLIC "-//W3C//DTD SVG 1.1//EN" "http://www.w3.org/Graphics/SVG/1.1/DTD/svg11.dtd">
<!-- Created with Vectornator (http://vectornator.io/) -->
<svg height="100%" stroke-miterlimit="10" style="fill-rule:nonzero;clip-rule:evenodd;stroke-linecap:round;stroke-linejoin:round;" version="1.1" viewBox="0 0 4000 1000" width="100%" xml:space="preserve" xmlns="http://www.w3.org/2000/svg" xmlns:vectornator="http://vectornator.io" xmlns:xlink="http://www.w3.org/1999/xlink">
<defs/>
<clipPath id="ArtboardFrame">
<rect height="1000" width="4000" x="0" y="0"/>
</clipPath>
<g clip-path="url(#ArtboardFrame)" id="Layer-1" vectornator:layerName="Layer 1">
<path d="M1974.16 735.531C1992.76 740.665 2021.97 734.35 2037.05 728.421C2048.68 723.843 2060.26 726.299 2072.3 727.912C2090.2 730.308 2093.68 726.064 2109.87 724.349C2125.31 722.712 2141.31 724.881 2156.82 724.252C2173.75 723.563 2184.9 717.744 2200.02 714.776C2216.23 711.594 2225.59 715.457 2239.88 706.01C2243.25 703.778 2253.57 692.9 2256.32 692.639C2267.12 691.621 2263.8 698.531 2271.29 702.206C2287.92 710.357 2299.36 710.153 2316.46 709.26C2328.92 708.607 2345.98 712.753 2359.65 709.381C2367.94 707.333 2370.97 701.32 2380.31 699.866C2386.99 698.827 2396.29 700.461 2402.85 701.743C2416.89 704.483 2425.38 710.147 2440.41 711.119C2456.19 712.145 2470.6 711.063 2485.53 714.829C2511.26 721.317 2547.77 725.635 2575.63 720.079C2592.8 716.65 2600.76 709.478 2618.82 710.659C2636.24 711.8 2643.84 708.567 2660.14 705.45C2672.72 703.048 2684.72 702.076 2697.71 698.04C2710.37 694.109 2723.47 687.915 2737.15 688.513C2753.25 689.223 2768.96 694.255 2785.97 694.239C2799.99 694.225 2814.54 693.973 2827.24 698.043C2882.3 715.713 2942.91 711.203 3001.95 714.873L3005.71 834.92L1997.56 848.465" fill="#a9d0de" fill-rule="nonzero" opacity="1" stroke="none"/>
<path d="M-2.19215 737.381C16.4116 742.515 20.7136 734.35 35.7876 728.421C47.417 723.843 59.0022 726.299 71.0449 727.912C88.9398 730.308 92.4255 726.064 108.613 724.349C124.056 722.712 140.048 724.881 155.564 724.252C172.496 723.563 183.637 717.744 198.759 714.776C214.976 711.594 224.327 715.457 238.617 706.01C241.99 703.778 252.31 692.9 255.059 692.639C265.857 691.621 262.538 698.531 270.036 702.206C286.659 710.357 298.103 710.153 315.2 709.26C327.661 708.607 344.722 712.753 358.396 709.381C366.682 707.333 369.712 701.32 379.054 699.866C385.728 698.827 395.028 700.461 401.591 701.743C415.632 704.483 424.123 710.147 439.151 711.119C454.936 712.145 469.34 711.063 484.269 714.829C510 721.317 546.515 725.635 574.372 720.079C591.539 716.65 599.505 709.478 617.566 710.659C634.979 711.8 642.581 708.567 658.885 705.45C671.46 703.048 683.465 702.076 696.454 698.04C709.114 694.109 722.209 687.915 735.887 688.513C751.992 689.223 767.701 694.255 784.715 694.239C798.734 694.225 813.285 693.973 825.979 698.043C881.043 715.713 941.655 711.203 1000.69 714.873L1001.28 840.27L-7.82668 863.055" fill="#a9d0de" fill-rule="nonzero" opacity="1" stroke="none"/>
<path d="M227.934 748.635C259.531 751.68 296.273 744.825 325.283 735.973C357.056 726.274 383.967 741.94 415.046 734.137C449.965 725.37 473.084 725.04 506.834 736.86C538.276 747.873 562.876 753.543 595.096 743.426C611.023 738.425 626.287 733.472 643.323 733.631C662.859 733.813 668.57 729.866 686.363 723.834C716.392 713.656 748.848 725.889 779.913 724.349C810.835 722.812 840.661 732.411 871.598 735.514C904.51 738.812 937.433 735.505 970.768 735.505C980.946 735.505 994.627 733.963 1002.58 737.381L998.161 840.496L226.063 868.682" fill="#6b9eb5" fill-rule="nonzero" opacity="1" stroke="none"/>
<path d="M-9.30885 761.766C7.78442 762.837 37.3057 753.216 53.921 752.388C68.8905 751.642 82.5643 757.906 96.9558 759.472C130.547 763.135 149.293 738.14 181.156 734.047C210.985 730.22 240.213 756.127 269.046 748.163C288.078 742.91 290.118 738.326 310.36 744.414C325.171 748.867 336.114 750.918 352.882 750.093C385.889 748.473 409.577 762.25 438.013 779.063C474.296 800.521 509.626 820.223 549.2 835.016C518.81 835.313 488.85 829.996 458.274 831.125C412.092 832.83 366.136 840.529 319.716 842.325C222.232 846.101 76.2574 851.801-21.7825 851.801" fill="#508098" fill-rule="nonzero" opacity="1" stroke="none"/>
<path d="M-14.6348 795.265C17.909 814.246 102.796 795.633 136.248 801.155C151.697 803.709 164.955 815.815 181.155 819.81C196.45 823.581 212.068 830.454 227.935 831.168C256.868 832.47 295.208 832.642 323.361 827.46C354.956 821.645 375.54 801.237 409.529 802.936C468.253 805.861 528.919 825.884 583.029 796.988C601.058 787.362 603.671 790.057 624.603 796.042C640.46 800.58 654.089 793.812 669.518 797.876C697.351 805.205 734.641 816.576 761.662 805.324C770.301 801.728 777.877 793.954 786.981 791.316C791.38 790.045 798.1 791.651 802.367 790.311C806.154 789.127 811.963 783.972 815.935 782.877C836.055 777.334 858.125 785.215 879.084 777.281C897.464 770.316 914.743 757.344 935.26 757.971C945.171 758.273 956.468 764.439 967.025 765.516C978.656 766.71 990.259 763.159 1000.71 769.271L1002.58 1007.49L-4.08401 1007.49" fill="#31526b" fill-rule="nonzero" opacity="1" stroke="none"/>
<path d="M2001.77 737.381C1983.16 742.515 1978.86 734.35 1963.79 728.421C1952.16 723.843 1940.57 726.299 1928.53 727.912C1910.64 730.308 1907.15 726.064 1890.96 724.349C1875.52 722.712 1859.53 724.881 1844.01 724.252C1827.08 723.563 1815.94 717.744 1800.82 714.776C1784.6 711.594 1775.25 715.457 1760.96 706.01C1757.59 703.778 1747.27 692.9 1744.52 692.639C1733.72 691.621 1737.04 698.531 1729.54 702.206C1712.92 710.357 1701.47 710.153 1684.38 709.26C1671.92 708.607 1654.85 712.753 1641.18 709.381C1632.89 707.333 1629.86 701.32 1620.52 699.866C1613.85 698.827 1604.55 700.461 1597.99 701.743C1583.94 704.483 1575.45 710.147 1560.43 711.119C1544.64 712.145 1530.24 711.063 1515.31 714.829C1489.58 721.317 1453.06 725.635 1425.2 720.079C1408.04 716.65 1400.07 709.478 1382.01 710.659C1364.6 711.8 1357 708.567 1340.69 705.45C1328.12 703.048 1316.11 702.076 1303.12 698.04C1290.46 694.109 1277.37 687.915 1263.69 688.513C1247.58 689.223 1231.88 694.255 1214.86 694.239C1200.84 694.225 1186.29 693.973 1173.6 698.043C1118.53 715.713 1057.92 711.203 998.886 714.873L1005.2 830.484L2007.4 863.055" fill="#a9d0de" fill-rule="nonzero" opacity="1" stroke="none"/>
<path d="M1771.64 748.635C1740.05 751.68 1703.3 744.825 1674.29 735.973C1642.52 726.274 1615.61 741.94 1584.53 734.137C1549.61 725.37 1526.49 725.04 1492.74 736.86C1461.3 747.873 1436.7 753.543 1404.48 743.426C1388.55 738.425 1373.29 733.472 1356.25 733.631C1336.72 733.813 1331.01 729.866 1313.21 723.834C1283.18 713.656 1250.73 725.889 1219.66 724.349C1188.74 722.812 1158.92 732.411 1127.98 735.514C1095.07 738.812 1028.81 735.505 1028.81 735.505C1028.81 735.505 1004.95 733.963 997 737.381L1004.93 848.6L1773.51 868.682" fill="#6b9eb5" fill-rule="nonzero" opacity="1" stroke="none"/>
<path d="M1994.31 761.766C1977.21 762.837 1962.27 753.216 1945.66 752.388C1930.69 751.642 1917.01 757.906 1902.62 759.472C1869.03 763.135 1850.28 738.14 1818.42 734.047C1788.59 730.22 1759.36 756.127 1730.53 748.163C1711.5 742.91 1709.46 738.326 1689.22 744.414C1674.41 748.867 1663.46 750.918 1646.69 750.093C1613.69 748.473 1590 762.25 1561.56 779.063C1525.28 800.521 1489.95 820.223 1450.38 835.016C1480.77 835.313 1510.73 829.996 1541.3 831.125C1587.48 832.83 1633.44 840.529 1679.86 842.325C1777.34 846.101 1917.47 853.687 2015.51 853.687" fill="#508098" fill-rule="nonzero" opacity="1" stroke="none"/>
<path d="M2229.19 748.635C2260.79 751.68 2297.53 744.825 2326.54 735.973C2358.31 726.274 2385.23 741.94 2416.3 734.137C2451.22 725.37 2474.34 725.04 2508.09 736.86C2539.53 747.873 2564.13 753.543 2596.35 743.426C2612.28 738.425 2627.55 733.472 2644.58 733.631C2664.12 733.813 2669.83 729.866 2687.62 723.834C2717.65 713.656 2750.11 725.889 2781.17 724.349C2812.09 722.812 2841.92 732.411 2872.86 735.514C2905.77 738.812 2938.69 735.505 2972.03 735.505C2982.2 735.505 2995.89 733.963 3003.84 737.381L3035.29 843.986L2227.32 868.682" fill="#6b9eb5" fill-rule="nonzero" opacity="1" stroke="none"/>
<path d="M1978.89 761.717C1995.98 762.788 2038.56 753.216 2055.18 752.388C2070.15 751.642 2083.82 757.906 2098.21 759.472C2131.81 763.135 2150.55 738.14 2182.41 734.047C2212.24 730.22 2241.47 756.127 2270.31 748.163C2289.34 742.91 2291.38 738.326 2311.62 744.414C2326.43 748.867 2337.37 750.918 2354.14 750.093C2387.15 748.473 2410.84 762.25 2439.27 779.063C2475.55 800.521 2510.89 820.223 2550.46 835.016C2520.07 835.313 2490.11 829.996 2459.53 831.125C2413.35 832.83 2367.4 840.529 2320.97 842.325C2223.49 846.101 2095.32 849.277 1997.28 849.277" fill="#508098" fill-rule="nonzero" opacity="1" stroke="none"/>
<path d="M1954.95 811.987C2029.93 800.42 2104.05 795.633 2137.51 801.155C2152.96 803.709 2166.21 815.815 2182.41 819.81C2197.71 823.581 2213.33 830.454 2229.19 831.168C2258.13 832.47 2296.47 832.642 2324.62 827.46C2356.22 821.645 2376.8 801.237 2410.79 802.936C2469.51 805.861 2530.18 825.884 2584.29 796.988C2602.32 787.362 2604.93 790.057 2625.86 796.042C2641.72 800.58 2655.35 793.812 2670.78 797.876C2698.61 805.205 2735.9 816.576 2762.92 805.324C2771.56 801.728 2779.14 793.954 2788.24 791.316C2792.64 790.045 2799.36 791.651 2803.63 790.311C2807.41 789.127 2813.22 783.972 2817.19 782.877C2837.31 777.334 2859.38 785.215 2880.34 777.281C2898.72 770.316 2916 757.344 2936.52 757.971C2946.43 758.273 2957.73 764.439 2968.28 765.516C2979.92 766.71 2991.52 763.159 3001.97 769.271L3003.84 1007.49L1997.17 1007.49" fill="#31526b" fill-rule="nonzero" opacity="1" stroke="none"/>
<path d="M4003.03 737.381C3984.42 742.515 3980.12 734.35 3965.05 728.421C3953.42 723.843 3941.83 726.299 3929.79 727.912C3911.9 730.308 3908.41 726.064 3892.22 724.349C3876.78 722.712 3860.79 724.881 3845.27 724.252C3828.34 723.563 3817.2 717.744 3802.08 714.776C3785.86 711.594 3776.51 715.457 3762.22 706.01C3758.85 703.778 3748.53 692.9 3745.78 692.639C3734.98 691.621 3738.3 698.531 3730.8 702.206C3714.18 710.357 3702.73 710.153 3685.63 709.26C3673.17 708.607 3656.11 712.753 3642.44 709.381C3634.15 707.333 3631.12 701.32 3621.78 699.866C3615.11 698.827 3605.81 700.461 3599.24 701.743C3585.2 704.483 3576.71 710.147 3561.68 711.119C3545.9 712.145 3531.5 711.063 3516.57 714.829C3490.84 721.317 3454.32 725.635 3426.46 720.079C3409.3 716.65 3401.33 709.478 3383.27 710.659C3365.86 711.8 3358.25 708.567 3341.95 705.45C3329.38 703.048 3317.37 702.076 3304.38 698.04C3291.72 694.109 3278.63 687.915 3264.95 688.513C3248.84 689.223 3233.13 694.255 3216.12 694.239C3202.1 694.225 3187.55 693.973 3174.86 698.043C3145.94 707.323 3084.54 711.928 3084.54 711.928C3084.54 711.928 3028.18 713.13 3000.15 714.873L3006.21 767.488L4008.66 863.055" fill="#a9d0de" fill-rule="nonzero" opacity="1" stroke="none"/>
<path d="M3772.9 748.635C3741.3 751.68 3704.56 744.825 3675.55 735.973C3643.78 726.274 3616.87 741.94 3585.79 734.137C3550.87 725.37 3527.75 725.04 3494 736.86C3462.56 747.873 3437.96 753.543 3405.74 743.426C3389.81 738.425 3374.55 733.472 3357.51 733.631C3337.98 733.813 3332.27 729.866 3314.47 723.834C3284.44 713.656 3251.99 725.889 3220.92 724.349C3190 722.812 3160.17 732.411 3129.24 735.514C3096.33 738.812 3063.4 735.505 3030.07 735.505C3019.89 735.505 3006.21 733.963 2998.26 737.381L3006.04 837.28L3774.77 868.682" fill="#6b9eb5" fill-rule="nonzero" opacity="1" stroke="none"/>
<path d="M4006.49 761.445C3989.4 762.515 3963.53 753.216 3946.91 752.388C3931.94 751.642 3918.27 757.906 3903.88 759.472C3870.29 763.135 3851.54 738.14 3819.68 734.047C3789.85 730.22 3760.62 756.127 3731.79 748.163C3712.76 742.91 3710.72 738.326 3690.48 744.414C3675.66 748.867 3664.72 750.918 3647.95 750.093C3614.95 748.473 3591.26 762.25 3562.82 779.063C3526.54 800.521 3491.21 820.223 3451.63 835.016C3482.03 835.313 3511.99 829.996 3542.56 831.125C3588.74 832.83 3634.7 840.529 3681.12 842.325C3778.6 846.101 3919.39 851.801 4017.43 851.801" fill="#508098" fill-rule="nonzero" opacity="1" stroke="none"/>
<path d="M4005.84 796.088C3973.29 815.069 3898.04 795.633 3864.59 801.155C3849.14 803.709 3835.88 815.815 3819.68 819.81C3804.39 823.581 3788.77 830.454 3772.9 831.168C3743.97 832.47 3705.63 832.642 3677.47 827.46C3645.88 821.645 3625.3 801.237 3591.31 802.936C3532.58 805.861 3471.92 825.884 3417.81 796.988C3399.78 787.362 3397.16 790.057 3376.23 796.042C3360.38 800.58 3346.75 793.812 3331.32 797.876C3303.48 805.205 3266.19 816.576 3239.17 805.324C3230.53 801.728 3222.96 793.954 3213.85 791.316C3209.46 790.045 3202.74 791.651 3198.47 790.311C3194.68 789.127 3188.87 783.972 3184.9 782.877C3164.78 777.334 3142.71 785.215 3121.75 777.281C3103.37 770.316 3086.09 757.344 3065.58 757.971C3055.66 758.273 3044.37 764.439 3033.81 765.516C3022.18 766.71 3010.58 763.159 3000.13 769.271L2998.26 1007.49L4004.92 1007.49" fill="#31526b" fill-rule="nonzero" opacity="1" stroke="none"/>
<path d="M1989.33 808.857C1989.33 808.857 1896.78 795.633 1863.33 801.155C1847.88 803.709 1834.62 815.815 1818.42 819.81C1803.13 823.581 1787.51 830.454 1771.64 831.168C1742.71 832.47 1704.37 832.642 1676.22 827.46C1644.62 821.645 1624.04 801.237 1590.05 802.936C1531.32 805.861 1470.66 825.884 1416.55 796.988C1398.52 787.362 1395.91 790.057 1374.97 796.042C1359.12 800.58 1345.49 793.812 1330.06 797.876C1302.23 805.205 1264.94 816.576 1237.91 805.324C1229.28 801.728 1221.7 793.954 1212.6 791.316C1208.2 790.045 1201.48 791.651 1197.21 790.311C1193.42 789.127 1187.61 783.972 1183.64 782.877C1163.52 777.334 1141.45 785.215 1120.49 777.281C1102.11 770.316 1084.83 757.344 1064.32 757.971C1054.41 758.273 1043.11 764.439 1032.55 765.516C1020.92 766.71 1009.32 763.159 998.87 769.271L997 1007.49L2003.66 1007.49" fill="#31526b" fill-rule="nonzero" opacity="1" stroke="none"/>
</g>
</svg>
